<mxfile host="app.diagrams.net" modified="2024-01-15T16:33:50.434Z" agent="Mozilla/5.0 (Windows NT 10.0; Win64; x64) AppleWebKit/537.36 (KHTML, like Gecko) Chrome/120.0.0.0 Safari/537.36" etag="RjKux1Gsetl8o07Das7S" version="22.1.18" type="device">
  <diagram name="Page-1" id="HIiNe9U3u-1HRWBaHntP">
    <mxGraphModel dx="1323" dy="785" grid="1" gridSize="10" guides="1" tooltips="1" connect="1" arrows="1" fold="1" page="1" pageScale="1" pageWidth="850" pageHeight="1100" math="0" shadow="0">
      <root>
        <mxCell id="0" />
        <mxCell id="1" parent="0" />
        <mxCell id="hBcF9zWyE9SCwcHtGvYD-1" value="&lt;b&gt;client side&lt;/b&gt;" style="rounded=0;whiteSpace=wrap;html=1;" vertex="1" parent="1">
          <mxGeometry x="80" y="220" width="120" height="60" as="geometry" />
        </mxCell>
        <mxCell id="hBcF9zWyE9SCwcHtGvYD-2" value="&lt;b&gt;server side database&lt;/b&gt;" style="rounded=0;whiteSpace=wrap;html=1;" vertex="1" parent="1">
          <mxGeometry x="440" y="100" width="120" height="60" as="geometry" />
        </mxCell>
        <mxCell id="hBcF9zWyE9SCwcHtGvYD-3" value="&lt;b style=&quot;border-color: var(--border-color);&quot;&gt;server side database&lt;/b&gt;" style="rounded=0;whiteSpace=wrap;html=1;" vertex="1" parent="1">
          <mxGeometry x="440" y="220" width="120" height="60" as="geometry" />
        </mxCell>
        <mxCell id="hBcF9zWyE9SCwcHtGvYD-5" value="" style="ellipse;whiteSpace=wrap;html=1;aspect=fixed;" vertex="1" parent="1">
          <mxGeometry x="280" y="210" width="80" height="80" as="geometry" />
        </mxCell>
        <mxCell id="hBcF9zWyE9SCwcHtGvYD-7" value="&lt;b style=&quot;border-color: var(--border-color);&quot;&gt;server side database&lt;/b&gt;" style="rounded=0;whiteSpace=wrap;html=1;" vertex="1" parent="1">
          <mxGeometry x="440" y="340" width="120" height="60" as="geometry" />
        </mxCell>
        <mxCell id="hBcF9zWyE9SCwcHtGvYD-8" value="" style="triangle;whiteSpace=wrap;html=1;" vertex="1" parent="1">
          <mxGeometry x="330" y="230" width="20" height="40" as="geometry" />
        </mxCell>
        <mxCell id="hBcF9zWyE9SCwcHtGvYD-9" value="" style="rounded=1;whiteSpace=wrap;html=1;" vertex="1" parent="1">
          <mxGeometry x="300" y="245" width="40" height="10" as="geometry" />
        </mxCell>
        <mxCell id="hBcF9zWyE9SCwcHtGvYD-10" value="" style="endArrow=none;html=1;rounded=0;exitX=1;exitY=0.5;exitDx=0;exitDy=0;entryX=0;entryY=0.5;entryDx=0;entryDy=0;" edge="1" parent="1" source="hBcF9zWyE9SCwcHtGvYD-5" target="hBcF9zWyE9SCwcHtGvYD-3">
          <mxGeometry width="50" height="50" relative="1" as="geometry">
            <mxPoint x="380" y="270" as="sourcePoint" />
            <mxPoint x="430" y="220" as="targetPoint" />
          </mxGeometry>
        </mxCell>
        <mxCell id="hBcF9zWyE9SCwcHtGvYD-11" value="" style="endArrow=none;html=1;rounded=0;" edge="1" parent="1">
          <mxGeometry width="50" height="50" relative="1" as="geometry">
            <mxPoint x="400" y="250" as="sourcePoint" />
            <mxPoint x="400" y="120" as="targetPoint" />
          </mxGeometry>
        </mxCell>
        <mxCell id="hBcF9zWyE9SCwcHtGvYD-12" value="" style="endArrow=none;html=1;rounded=0;" edge="1" parent="1">
          <mxGeometry width="50" height="50" relative="1" as="geometry">
            <mxPoint x="400" y="380" as="sourcePoint" />
            <mxPoint x="400" y="250" as="targetPoint" />
            <Array as="points">
              <mxPoint x="400" y="250" />
            </Array>
          </mxGeometry>
        </mxCell>
        <mxCell id="hBcF9zWyE9SCwcHtGvYD-13" value="" style="endArrow=none;html=1;rounded=0;exitX=-0.044;exitY=0.394;exitDx=0;exitDy=0;exitPerimeter=0;" edge="1" parent="1" source="hBcF9zWyE9SCwcHtGvYD-2">
          <mxGeometry width="50" height="50" relative="1" as="geometry">
            <mxPoint x="380" y="270" as="sourcePoint" />
            <mxPoint x="400" y="120" as="targetPoint" />
          </mxGeometry>
        </mxCell>
        <mxCell id="hBcF9zWyE9SCwcHtGvYD-14" value="" style="endArrow=none;html=1;rounded=0;entryX=-0.044;entryY=0.65;entryDx=0;entryDy=0;entryPerimeter=0;" edge="1" parent="1" target="hBcF9zWyE9SCwcHtGvYD-7">
          <mxGeometry width="50" height="50" relative="1" as="geometry">
            <mxPoint x="400" y="380" as="sourcePoint" />
            <mxPoint x="430" y="220" as="targetPoint" />
          </mxGeometry>
        </mxCell>
        <mxCell id="hBcF9zWyE9SCwcHtGvYD-15" value="" style="endArrow=none;html=1;rounded=0;exitX=1;exitY=0.5;exitDx=0;exitDy=0;" edge="1" parent="1" source="hBcF9zWyE9SCwcHtGvYD-7">
          <mxGeometry width="50" height="50" relative="1" as="geometry">
            <mxPoint x="370" y="400" as="sourcePoint" />
            <mxPoint x="640" y="370" as="targetPoint" />
          </mxGeometry>
        </mxCell>
        <mxCell id="hBcF9zWyE9SCwcHtGvYD-16" value="" style="endArrow=none;html=1;rounded=0;exitX=1;exitY=0.5;exitDx=0;exitDy=0;" edge="1" parent="1" source="hBcF9zWyE9SCwcHtGvYD-3">
          <mxGeometry width="50" height="50" relative="1" as="geometry">
            <mxPoint x="370" y="400" as="sourcePoint" />
            <mxPoint x="720" y="250" as="targetPoint" />
          </mxGeometry>
        </mxCell>
        <mxCell id="hBcF9zWyE9SCwcHtGvYD-17" value="" style="endArrow=none;html=1;rounded=0;entryX=1;entryY=0.5;entryDx=0;entryDy=0;" edge="1" parent="1" target="hBcF9zWyE9SCwcHtGvYD-2">
          <mxGeometry width="50" height="50" relative="1" as="geometry">
            <mxPoint x="640" y="130" as="sourcePoint" />
            <mxPoint x="420" y="350" as="targetPoint" />
          </mxGeometry>
        </mxCell>
        <mxCell id="hBcF9zWyE9SCwcHtGvYD-18" value="" style="endArrow=none;html=1;rounded=0;" edge="1" parent="1">
          <mxGeometry width="50" height="50" relative="1" as="geometry">
            <mxPoint x="640" y="130" as="sourcePoint" />
            <mxPoint x="640" y="370" as="targetPoint" />
          </mxGeometry>
        </mxCell>
        <mxCell id="hBcF9zWyE9SCwcHtGvYD-19" value="Third party API" style="rounded=0;whiteSpace=wrap;html=1;" vertex="1" parent="1">
          <mxGeometry x="720" y="220" width="120" height="60" as="geometry" />
        </mxCell>
        <mxCell id="hBcF9zWyE9SCwcHtGvYD-20" value="" style="endArrow=none;dashed=1;html=1;dashPattern=1 3;strokeWidth=2;rounded=0;" edge="1" parent="1">
          <mxGeometry width="50" height="50" relative="1" as="geometry">
            <mxPoint x="240" y="430" as="sourcePoint" />
            <mxPoint x="240" y="40" as="targetPoint" />
          </mxGeometry>
        </mxCell>
        <mxCell id="hBcF9zWyE9SCwcHtGvYD-21" value="" style="endArrow=none;dashed=1;html=1;dashPattern=1 3;strokeWidth=2;rounded=0;" edge="1" parent="1">
          <mxGeometry width="50" height="50" relative="1" as="geometry">
            <mxPoint x="240" y="430" as="sourcePoint" />
            <mxPoint x="700" y="430" as="targetPoint" />
          </mxGeometry>
        </mxCell>
        <mxCell id="hBcF9zWyE9SCwcHtGvYD-22" value="" style="endArrow=none;dashed=1;html=1;dashPattern=1 3;strokeWidth=2;rounded=0;" edge="1" parent="1">
          <mxGeometry width="50" height="50" relative="1" as="geometry">
            <mxPoint x="240" y="50" as="sourcePoint" />
            <mxPoint x="700" y="50" as="targetPoint" />
          </mxGeometry>
        </mxCell>
        <mxCell id="hBcF9zWyE9SCwcHtGvYD-23" value="" style="endArrow=none;dashed=1;html=1;dashPattern=1 3;strokeWidth=2;rounded=0;" edge="1" parent="1">
          <mxGeometry width="50" height="50" relative="1" as="geometry">
            <mxPoint x="700" y="50" as="sourcePoint" />
            <mxPoint x="700" y="430" as="targetPoint" />
          </mxGeometry>
        </mxCell>
        <mxCell id="hBcF9zWyE9SCwcHtGvYD-24" value="" style="endArrow=none;html=1;rounded=0;exitX=1;exitY=0.5;exitDx=0;exitDy=0;entryX=0;entryY=0.5;entryDx=0;entryDy=0;" edge="1" parent="1" source="hBcF9zWyE9SCwcHtGvYD-1" target="hBcF9zWyE9SCwcHtGvYD-5">
          <mxGeometry width="50" height="50" relative="1" as="geometry">
            <mxPoint x="370" y="400" as="sourcePoint" />
            <mxPoint x="420" y="350" as="targetPoint" />
          </mxGeometry>
        </mxCell>
        <mxCell id="hBcF9zWyE9SCwcHtGvYD-25" value="Load balancing" style="text;strokeColor=none;fillColor=none;align=left;verticalAlign=middle;spacingLeft=4;spacingRight=4;overflow=hidden;points=[[0,0.5],[1,0.5]];portConstraint=eastwest;rotatable=0;whiteSpace=wrap;html=1;" vertex="1" parent="1">
          <mxGeometry x="280" y="170" width="80" height="30" as="geometry" />
        </mxCell>
        <mxCell id="hBcF9zWyE9SCwcHtGvYD-26" value="SERVER SIDE" style="text;html=1;strokeColor=none;fillColor=none;align=center;verticalAlign=middle;whiteSpace=wrap;rounded=0;" vertex="1" parent="1">
          <mxGeometry x="560" y="60" width="100" height="30" as="geometry" />
        </mxCell>
        <mxCell id="hBcF9zWyE9SCwcHtGvYD-27" value="CLIENT SIDE" style="text;html=1;strokeColor=none;fillColor=none;align=center;verticalAlign=middle;whiteSpace=wrap;rounded=0;" vertex="1" parent="1">
          <mxGeometry x="80" y="60" width="110" height="30" as="geometry" />
        </mxCell>
      </root>
    </mxGraphModel>
  </diagram>
</mxfile>
